<?xml version="1.0"?>
<svg xmlns="http://www.w3.org/2000/svg" xmlns:xlink="http://www.w3.org/1999/xlink" xmlns:svgjs="http://svgjs.com/svgjs" version="1.1" width="512" height="512" x="0" y="0" viewBox="0 0 297 297" style="enable-background:new 0 0 512 512" xml:space="preserve" class=""><g>
<g xmlns="http://www.w3.org/2000/svg">
	<path d="M275.675,276.447H21.325c-5.675,0-10.277,4.601-10.277,10.277S15.65,297,21.325,297h254.349   c5.675,0,10.277-4.601,10.277-10.277S281.35,276.447,275.675,276.447z" fill="#ffffff" data-original="#000000" style="" class=""/>
	<path d="M55.676,119.604c1.99,2.912,5.214,4.479,8.493,4.479c1.997,0,4.016-0.581,5.79-1.793c4.686-3.202,5.888-9.597,2.686-14.283   c-0.101-0.149-10.053-15.02-1.697-29.543c14.91-25.915-1.64-48.112-2.351-49.044c-3.445-4.51-9.893-5.373-14.405-1.931   c-4.51,3.445-5.375,9.894-1.931,14.405c0.091,0.119,9.039,12.125,0.872,26.319C38.41,93.8,54.964,118.562,55.676,119.604z" fill="#ffffff" data-original="#000000" style="" class=""/>
	<path d="M116.704,117.123c1.848,3.472,5.404,5.451,9.081,5.451c1.628,0,3.28-0.388,4.818-1.206c5.01-2.666,6.911-8.889,4.245-13.9   c-0.117-0.222-11.696-22.433-2.407-43.925c13.282-30.735-2.144-57.383-2.807-58.503c-2.893-4.882-9.194-6.497-14.08-3.603   c-4.882,2.893-6.496,9.197-3.603,14.08c0.109,0.184,10.797,18.647,1.623,39.873C100.408,85.857,116.033,115.86,116.704,117.123z" fill="#ffffff" data-original="#000000" style="" class=""/>
	<path d="M178.988,118.095c1.99,2.912,5.214,4.479,8.493,4.479c1.997,0,4.016-0.581,5.79-1.793   c4.686-3.202,5.888-9.597,2.686-14.283c-0.101-0.149-10.053-15.02-1.697-29.543c14.91-25.915-1.64-48.112-2.351-49.044   c-3.445-4.51-9.893-5.373-14.405-1.931c-4.51,3.445-5.375,9.894-1.931,14.405c0.091,0.119,9.039,12.125,0.872,26.319   C161.722,92.291,178.275,117.054,178.988,118.095z" fill="#ffffff" data-original="#000000" style="" class=""/>
	<path d="M246.967,194.746H222.25c-1.743,4.416-3.717,8.723-5.912,12.909c1.21,0.924,2.716,1.478,4.356,1.478h26.273   c17.17,0,31.14-13.97,31.14-31.14c0-17.171-13.97-31.141-31.14-31.141h-15.041c-0.138,4.849-0.518,9.649-1.122,14.387h16.163   c9.238,0,16.753,7.516,16.753,16.754S256.205,194.746,246.967,194.746z" fill="#ffffff" data-original="#000000" style="" class=""/>
	<path d="M94.647,248.956h56.835c37.051-13.783,63.394-53.766,65.928-99.171H28.72C31.254,195.19,57.596,235.173,94.647,248.956z" fill="#ffffff" data-original="#000000" style="" class=""/>
</g>
<g xmlns="http://www.w3.org/2000/svg">
</g>
<g xmlns="http://www.w3.org/2000/svg">
</g>
<g xmlns="http://www.w3.org/2000/svg">
</g>
<g xmlns="http://www.w3.org/2000/svg">
</g>
<g xmlns="http://www.w3.org/2000/svg">
</g>
<g xmlns="http://www.w3.org/2000/svg">
</g>
<g xmlns="http://www.w3.org/2000/svg">
</g>
<g xmlns="http://www.w3.org/2000/svg">
</g>
<g xmlns="http://www.w3.org/2000/svg">
</g>
<g xmlns="http://www.w3.org/2000/svg">
</g>
<g xmlns="http://www.w3.org/2000/svg">
</g>
<g xmlns="http://www.w3.org/2000/svg">
</g>
<g xmlns="http://www.w3.org/2000/svg">
</g>
<g xmlns="http://www.w3.org/2000/svg">
</g>
<g xmlns="http://www.w3.org/2000/svg">
</g>
</g></svg>
